<svg width="30" height="30" viewBox="0 0 30 30" fill="none" xmlns="http://www.w3.org/2000/svg">
<path d="M22.2987 8.62861L19.6195 22.1365C19.6195 22.1365 19.2449 23.0733 18.2145 22.6236L12.0319 17.8836L9.78377 16.797L5.99932 15.523C5.99932 15.523 5.41853 15.317 5.36228 14.8673C5.30615 14.4177 6.01807 14.1742 6.01807 14.1742L21.0621 8.27259C21.0621 8.27259 22.2987 7.72931 22.2987 8.62861Z" fill="white"/>
<path d="M11.5566 21.9848C11.5566 21.9848 11.3762 21.9679 11.1513 21.2559C10.9265 20.544 9.78369 16.797 9.78369 16.797L18.8701 11.0267C18.8701 11.0267 19.3947 10.7082 19.376 11.0267C19.376 11.0267 19.4696 11.0828 19.1886 11.3451C18.9076 11.6075 12.0506 17.7712 12.0506 17.7712" fill="#D2E5F1"/>
<path d="M14.4024 19.701L11.957 21.9306C11.957 21.9306 11.7658 22.0757 11.5566 21.9848L12.0249 17.8433" fill="#B5CFE4"/>
</svg>
