<svg width="144" height="15" viewBox="0 0 144 15" fill="none" xmlns="http://www.w3.org/2000/svg">
<path d="M4.52586 5.52819H0.8927V3.65875H10.0382V5.52819H6.40508V14.7507H4.40057V5.52819H4.52586ZM19.0585 14.7507H12.4186V3.65875H18.8079V5.52819H14.2978V8.27003H18.3068V10.1395H14.2978V13.0059H18.9332V14.7507H19.0585ZM28.7052 3.65875H30.9602L27.2018 9.0178L31.0855 14.6261H28.8304L25.949 10.5134L23.0675 14.6261H20.8124L24.6962 9.0178L20.9377 3.65875H23.1928L25.949 7.64688L28.7052 3.65875ZM42.4861 14.7507H40.4816V10.0148H35.4703V14.7507H33.4659V3.65875H35.4703V8.1454H40.6069V3.65875H42.4861V14.7507ZM45.3676 9.26706C45.3676 7.64688 45.8687 6.27596 46.9962 5.1543C48.1238 4.03264 49.5019 3.53412 51.1305 3.53412C52.7592 3.53412 54.1373 4.03264 55.2648 5.1543C56.3923 6.27596 56.8935 7.64688 56.8935 9.26706C56.8935 10.8872 56.3923 12.2582 55.2648 13.3798C54.1373 14.5015 52.7592 15 51.1305 15C49.5019 15 48.1238 14.5015 46.9962 13.3798C45.8687 12.2582 45.3676 10.8872 45.3676 9.26706ZM47.3721 9.26706C47.3721 10.3887 47.7479 11.2611 48.3743 12.0089C49.0007 12.7567 50.003 13.1306 51.0052 13.1306C52.1328 13.1306 53.0097 12.7567 53.7614 12.0089C54.3878 11.2611 54.7637 10.3887 54.7637 9.26706C54.7637 8.1454 54.3878 7.14837 53.6361 6.52522C52.8845 5.77744 52.0075 5.40356 51.0052 5.40356C49.8777 5.40356 49.0007 5.77744 48.3743 6.52522C47.7479 7.14837 47.3721 8.1454 47.3721 9.26706ZM67.9182 14.7507H66.039V5.52819H62.7817L62.5311 7.64688C62.4058 8.89318 62.2806 10.0148 62.03 10.8872C61.7794 11.7596 61.6541 12.5074 61.4036 13.0059C61.153 13.5045 60.9025 14.003 60.5266 14.2522C60.1508 14.5015 59.9002 14.7507 59.5244 14.7507C59.1485 14.8754 58.7727 14.8754 58.2715 14.7507V12.8813C58.5221 12.8813 58.6474 12.8813 58.898 12.8813C59.0232 12.8813 59.2738 12.632 59.3991 12.3828C59.6497 12.1335 59.7749 11.7596 59.9002 11.2611C60.2761 10.1395 60.5266 8.39466 60.7772 5.90207L60.9025 3.65875H67.9182V14.7507ZM70.7997 9.26706C70.7997 7.64688 71.3008 6.27596 72.4283 5.1543C73.5559 4.03264 74.934 3.53412 76.5626 3.53412C78.1913 3.53412 79.5694 4.03264 80.6969 5.1543C81.8245 6.27596 82.3256 7.64688 82.3256 9.26706C82.3256 10.8872 81.8245 12.2582 80.6969 13.3798C79.5694 14.5015 78.1913 15 76.5626 15C74.934 15 73.5559 14.5015 72.4283 13.3798C71.3008 12.2582 70.7997 10.8872 70.7997 9.26706ZM72.9295 9.26706C72.9295 10.3887 73.3053 11.2611 73.9317 12.0089C74.5581 12.7567 75.5604 13.1306 76.5626 13.1306C77.6902 13.1306 78.5671 12.7567 79.3188 12.0089C79.9452 11.2611 80.3211 10.3887 80.3211 9.26706C80.3211 8.1454 79.9452 7.14837 79.1935 6.52522C78.4418 5.77744 77.5649 5.40356 76.5626 5.40356C75.4351 5.40356 74.5581 5.77744 73.9317 6.52522C73.18 7.14837 72.9295 8.1454 72.9295 9.26706ZM87.2115 14.7507H85.207V3.65875H91.4711V5.52819H87.2115V14.7507ZM96.1065 14.7507H94.102V3.65875H96.1065V14.7507ZM98.988 1.78931C98.988 1.54006 99.1133 1.2908 99.2385 1.04154C99.4891 0.91691 99.7397 0.792282 99.9902 0.792282C100.241 0.792282 100.491 0.91691 100.742 1.04154C100.993 1.16617 100.993 1.41543 100.993 1.78931C100.993 2.1632 100.867 2.41246 100.742 2.53709C100.617 2.66172 100.366 2.78635 99.9902 2.78635C99.7397 2.78635 99.4891 2.66172 99.2385 2.53709C99.1133 2.28783 98.988 2.03857 98.988 1.78931ZM102.245 14.7507H100.241V3.65875H102.245V14.7507ZM101.619 1.78931C101.619 1.54006 101.744 1.2908 101.869 1.04154C102.12 0.91691 102.371 0.792282 102.621 0.792282C102.872 0.792282 103.122 0.91691 103.373 1.04154C103.623 1.2908 103.623 1.41543 103.623 1.78931C103.623 2.1632 103.498 2.41246 103.373 2.53709C103.248 2.78635 102.997 2.78635 102.621 2.78635C102.245 2.78635 101.995 2.66172 101.869 2.53709C101.744 2.28783 101.619 2.03857 101.619 1.78931ZM117.905 12.2582L118.657 13.7537C118.281 14.1276 117.78 14.3769 117.154 14.6261C116.527 14.8754 115.776 15 115.149 15C113.395 15 112.017 14.5015 111.015 13.3798C110.013 12.3828 109.386 11.0119 109.386 9.26706C109.386 7.64688 109.887 6.27596 110.89 5.1543C111.892 4.03264 113.27 3.53412 115.024 3.53412C116.402 3.53412 117.53 3.90801 118.407 4.65578L117.53 6.15133C116.778 5.65282 115.901 5.40356 115.024 5.40356C114.022 5.40356 113.145 5.77745 112.393 6.40059C111.767 7.14837 111.391 8.02077 111.391 9.26706C111.391 10.3887 111.767 11.3858 112.393 12.1335C113.145 12.8813 114.022 13.2552 115.149 13.2552C116.277 13.1306 117.154 12.8813 117.905 12.2582ZM130.183 14.7507H128.304V10.0148H123.167V14.7507H121.163V3.65875H123.167V8.1454H128.304V3.65875H130.183V14.7507ZM141.083 3.65875H143.087L139.329 12.1335C138.953 13.0059 138.452 13.6291 138.076 14.1276C137.575 14.5015 137.074 14.7507 136.322 14.7507C135.57 14.7507 135.194 14.6261 134.818 14.2522L135.445 12.632C135.695 12.7567 135.946 12.8813 136.322 12.8813C136.823 12.8813 137.199 12.632 137.449 12.1335L137.575 11.7596L132.689 3.65875H134.944L138.577 9.89021L141.083 3.65875Z" fill="#535353"/>
</svg>
