<svg width="82" height="125" viewBox="0 0 82 125" fill="none" xmlns="http://www.w3.org/2000/svg">
<g clip-path="url(#clip0_505_823)">
<path d="M-65.3421 66.1843C-56.6833 63.1495 -48.0177 60.2215 -39.5007 56.7983C-31.1218 53.4066 -23.1284 49.1348 -15.6534 44.0537C-1.42556 34.3453 11.1605 22.1262 26.6827 14.3265C34.4206 10.2329 42.9651 7.88675 51.7212 7.45135C51.8646 7.46152 52.0016 7.51627 52.1131 7.60806C52.2246 7.69984 52.305 7.82408 52.3432 7.96342C52.3813 8.10276 52.3752 8.25026 52.3259 8.38545C52.2765 8.52064 52.1863 8.63675 52.0677 8.71762L29.4358 19.5708C21.893 23.2063 14.5112 27.0256 6.87918 30.6019C5.80786 31.2204 4.76894 29.4685 5.90878 28.9211C13.4397 25.2648 21.097 21.9228 28.705 18.305L51.3968 7.55561C51.6005 7.90836 51.6187 8.36817 51.7313 8.80115C35.015 9.15613 20.5026 18.7523 8.06152 29.0339C1.2021 34.7095 -5.45172 40.5985 -12.6931 45.803C-19.9071 50.9003 -27.6795 55.1557 -35.861 58.4873C-45.3057 62.2965 -54.9677 65.5468 -64.7976 68.2217C-66.0452 68.5823 -66.5179 66.6695 -65.3061 66.2466L-65.3421 66.1843Z" fill="black" fill-opacity="0.1"/>
<path d="M-63.6704 65.6067C-49.4788 63.6384 -37.4742 53.8854 -22.7051 54.8206C-15.56 55.5565 -8.52899 57.1854 -1.77571 59.6694C5.31512 62.0077 12.2674 64.7559 19.0461 67.9003C26.6577 71.5093 34.0614 75.5484 41.2214 79.9979C41.3888 80.0993 41.5195 80.2521 41.5939 80.4335C41.6684 80.6149 41.6826 80.8152 41.6345 81.0046C41.5865 81.194 41.4786 81.3624 41.3271 81.4847C41.1756 81.6071 40.9885 81.6768 40.7936 81.6835C33.2078 81.5811 25.416 81.5976 18.6071 77.8926C11.7981 74.1876 6.88014 67.6201 0.0884606 63.8498C-0.0949842 63.7466 -0.23046 63.5747 -0.288255 63.372C-0.346049 63.1693 -0.321366 62.9524 -0.219657 62.7689C-0.117948 62.5854 0.0524478 62.4505 0.254081 62.3937C0.455716 62.337 0.672031 62.3631 0.855476 62.4663C7.37115 66.0916 12.5703 71.5284 18.9657 75.2785C25.3611 79.0286 33.3269 79.7416 40.8749 79.9212C40.7283 80.4762 40.5612 81.0431 40.4266 81.6188C34.1918 77.8481 27.7293 74.4732 21.0775 71.5139C14.329 68.4028 7.41072 65.6813 0.356771 63.3629C-6.36378 60.9381 -13.2919 59.1488 -20.3369 58.0184C-27.3232 57.2433 -34.3827 58.1426 -40.935 60.6423C-48.2911 63.174 -55.5316 66.5242 -63.391 66.9948C-64.1562 67.0492 -64.3431 65.7738 -63.5813 65.666L-63.6704 65.6067Z" fill="black" fill-opacity="0.1"/>
<path d="M-30.8327 54.5883C-24.5865 56.3179 -18.2197 57.563 -11.7889 58.3123C-5.82047 58.8544 0.190114 58.395 5.99581 56.9531C16.771 54.3011 26.7861 49.2382 37.534 46.4913C43.3758 44.8707 49.4863 44.4268 55.5143 45.1852L55.0281 46.96C39.4771 42.79 22.9797 44.4452 8.62776 51.6155C4.55184 53.6399 0.731836 56.1426 -2.75269 59.0713C-2.86564 59.1911 -3.00318 59.2849 -3.15595 59.3461C-3.30872 59.4074 -3.47311 59.4347 -3.6378 59.4261C-3.80249 59.4176 -3.96361 59.3734 -4.11014 59.2967C-4.25668 59.22 -4.38517 59.1125 -4.48679 58.9816C-4.5884 58.8507 -4.66073 58.6994 -4.69887 58.5382C-4.73701 58.377 -4.74004 58.2097 -4.70774 58.0476C-4.67544 57.8856 -4.60857 57.7327 -4.51173 57.5994C-4.41488 57.4661 -4.29037 57.3556 -4.14667 57.2754C8.93365 47.1915 25.179 42.1055 41.7076 42.9197C46.3587 43.1726 50.9738 43.911 55.4783 45.123C56.6513 45.4418 56.1345 47.0682 54.9922 46.8977C43.7149 45.3021 32.821 49.4614 22.478 53.3855C12.1351 57.3096 1.20043 61.1604 -10.2938 60.1881C-17.3801 59.3723 -24.3839 57.9254 -31.2222 55.8645C-32.0899 55.6461 -31.7364 54.3077 -30.8687 54.526L-30.8327 54.5883Z" fill="black" fill-opacity="0.1"/>
<path d="M-64.7484 66.1184C-59.8032 64.824 -54.6233 64.671 -49.5966 65.6706C-44.3408 66.5569 -39.1675 67.8928 -34.1333 69.6635C-22.7596 73.4721 -11.1952 77.0875 -0.195142 81.9142C5.6263 84.2785 11.0962 87.4433 16.0567 91.3172C16.6188 91.7674 15.8354 92.5516 15.294 92.0896C10.8883 88.6604 6.01825 85.8815 0.833262 83.8381C-4.31722 81.721 -9.71392 80.2717 -14.9832 78.4722L-32.125 72.5711C-36.9277 70.8519 -41.8265 69.4211 -46.7953 68.2863C-49.6597 67.6455 -52.574 67.2632 -55.5033 67.1442C-58.4154 67.1316 -61.3217 67.3658 -64.1915 67.8443C-64.4052 67.8751 -64.6233 67.8259 -64.8043 67.7062C-64.9853 67.5865 -65.1165 67.4046 -65.1732 67.1949C-65.2298 66.9853 -65.2079 66.7625 -65.1116 66.5689C-65.0153 66.3754 -64.8513 66.2245 -64.6507 66.1449L-64.7484 66.1184Z" fill="black" fill-opacity="0.1"/>
</g>
<defs>
<clipPath id="clip0_505_823">
<rect width="132.34" height="66.6102" fill="white" transform="matrix(-0.866025 0.5 0.5 0.866025 48.164 0.624023)"/>
</clipPath>
</defs>
</svg>
