<svg width="168" height="26" viewBox="0 0 168 26" fill="none" xmlns="http://www.w3.org/2000/svg">
<path d="M10.6447 11.7151L21.4189 24.8012H14.5285L5.88405 13.9585V24.8012H0.496948V0.249263H5.88405V10.2196L14.1526 0.249263H20.7925L10.6447 11.7151ZM120.516 5.35906H128.033V24.8012H133.42V5.35906H140.937V0.249263H120.391V5.35906H120.516ZM36.9538 14.9555L44.596 24.8012H38.0813L31.692 16.0772H29.6875V24.8012H24.3004V0.249263H24.9268C26.0543 0.249263 27.3072 0.249263 28.6852 0.249263C30.0633 0.249263 31.1909 0.249263 32.0678 0.249263C39.5847 0.249263 41.2134 4.48665 41.2134 8.1009C41.2134 9.97033 40.7123 11.5905 39.71 12.8368C38.833 13.7092 37.9561 14.457 36.9538 14.9555ZM30.3139 5.35906C30.0633 5.35906 29.9381 5.35906 29.6875 5.35906V10.9674H31.692C32.8195 10.9674 33.8218 10.7181 34.5735 10.095C35.1999 9.59645 35.5757 8.84867 35.5757 7.97627C35.5757 6.72998 35.1999 5.23443 31.8173 5.23443C31.692 5.23443 31.5667 5.23443 31.3162 5.23443C31.0656 5.35906 30.6898 5.35906 30.3139 5.35906ZM111.872 0.249263L122.27 24.8012H116.507L114.127 18.819H104.982L102.601 24.8012H97.0889L107.362 0.249263H111.872ZM109.492 7.72701L106.986 13.7092H111.997L109.492 7.72701ZM167.497 12.5875C167.497 16.2018 166.244 19.3175 163.864 21.6855C161.483 24.0534 158.351 25.2997 154.718 25.2997C151.085 25.2997 147.953 24.178 145.573 21.8101C143.192 19.4421 141.94 16.451 141.94 12.7122C141.94 9.22256 143.192 6.10683 145.573 3.73888C147.953 1.37092 151.085 0.124634 154.718 0.124634C158.351 0.124634 161.483 1.2463 163.864 3.61425C166.244 5.73294 167.497 8.84867 167.497 12.5875ZM159.98 17.9466C161.358 16.451 161.985 14.7062 161.985 12.4629C161.985 10.2196 161.358 8.47478 159.855 6.97923C158.477 5.60831 156.723 4.86054 154.718 4.86054C152.588 4.86054 150.96 5.60831 149.582 6.97923C148.204 8.35015 147.577 10.2196 147.577 12.4629C147.577 14.7062 148.204 16.451 149.582 17.822C150.96 19.3175 152.588 19.9407 154.718 19.9407C156.973 20.0653 158.602 19.4421 159.98 17.9466ZM94.0821 0.249263L87.818 16.451L81.3034 0.249263H75.5405L85.6882 24.8012H89.6972L99.5945 0.249263H94.0821Z" fill="#535353"/>
</svg>
