<svg width="38" height="38" viewBox="0 0 38 38" fill="none" xmlns="http://www.w3.org/2000/svg">
<g clip-path="url(#clip0_47_282)" filter="url(#filter0_d_47_282)">
<path d="M19 30C27.2843 30 34 23.2843 34 15C34 6.71573 27.2843 0 19 0C10.7157 0 4 6.71573 4 15C4 23.2843 10.7157 30 19 30Z" fill="#6F3FAA"/>
<path d="M26.9351 10.5424L26.9302 10.5226C26.5294 8.90232 24.7225 7.16373 23.0631 6.80203L23.0445 6.79816C20.3605 6.28617 17.6391 6.28617 14.9558 6.79816L14.9365 6.80203C13.2777 7.16373 11.4707 8.90244 11.0694 10.5226L11.065 10.5424C10.5695 12.8051 10.5695 15.0999 11.065 17.3626L11.0694 17.3824C11.4537 18.9335 13.126 20.5923 14.7234 21.0485V22.8571C14.7234 23.5118 15.5212 23.8333 15.9748 23.3609L17.8073 21.456C18.2048 21.4782 18.6025 21.4907 19.0001 21.4907C20.3511 21.4907 21.7027 21.3629 23.0444 21.1069L23.0631 21.1031C24.7225 20.7414 26.5294 19.0027 26.9302 17.3825L26.9351 17.3627C27.4305 15.0999 27.4305 12.8053 26.9351 10.5424ZM25.4849 17.0345C25.2173 18.0916 23.8454 19.4058 22.7553 19.6486C21.3282 19.92 19.8898 20.036 18.4529 19.9962C18.4243 19.9954 18.3968 20.0065 18.3769 20.027C18.173 20.2363 17.0389 21.4005 17.0389 21.4005L15.6158 22.8612C15.5118 22.9697 15.3289 22.8958 15.3289 22.7461V19.7498C15.3289 19.7003 15.2936 19.6583 15.245 19.6487C15.2447 19.6486 15.2445 19.6486 15.2442 19.6485C14.1541 19.4057 12.7826 18.0916 12.5146 17.0345C12.0686 14.9892 12.0686 12.9158 12.5146 10.8705C12.7826 9.81346 14.1541 8.49932 15.2442 8.2565C17.7365 7.78248 20.2635 7.78248 22.7554 8.2565C23.846 8.49932 25.2173 9.81346 25.4849 10.8705C25.9314 12.9159 25.9314 14.9893 25.4849 17.0345Z" fill="white"/>
<path d="M21.3714 18.4176C21.2038 18.3667 21.0441 18.3325 20.8957 18.2711C19.3587 17.6334 17.9443 16.8107 16.8239 15.5497C16.1868 14.8327 15.6881 14.0231 15.2666 13.1663C15.0666 12.76 14.8982 12.3379 14.7264 11.9183C14.5699 11.5358 14.8005 11.1407 15.0433 10.8524C15.2712 10.5819 15.5645 10.3749 15.882 10.2223C16.1299 10.1032 16.3743 10.1719 16.5554 10.3819C16.9467 10.8362 17.3062 11.3136 17.5972 11.8401C17.7762 12.1639 17.7271 12.5598 17.4027 12.7802C17.3238 12.8337 17.252 12.8967 17.1785 12.9571C17.1141 13.0102 17.0535 13.0637 17.0093 13.1355C16.9286 13.2668 16.9248 13.4218 16.9767 13.5646C17.3767 14.6638 18.0509 15.5187 19.1575 15.9792C19.3345 16.0529 19.5123 16.1386 19.7163 16.1149C20.0579 16.075 20.1686 15.7002 20.408 15.5044C20.642 15.3131 20.941 15.3106 21.193 15.4701C21.4452 15.6297 21.6895 15.8009 21.9324 15.9741C22.1709 16.144 22.4083 16.3101 22.6282 16.5039C22.8397 16.6901 22.9125 16.9345 22.7934 17.1872C22.5754 17.6501 22.2581 18.0352 21.8006 18.281C21.6714 18.3503 21.517 18.3727 21.3714 18.4176C21.517 18.3727 21.2038 18.3667 21.3714 18.4176Z" fill="white"/>
<path d="M19.0041 9.69293C21.0144 9.74929 22.6657 11.0834 23.0195 13.0709C23.0798 13.4096 23.1012 13.7558 23.1281 14.0995C23.1394 14.2441 23.0575 14.3814 22.9015 14.3834C22.7404 14.3853 22.6679 14.2504 22.6573 14.106C22.6367 13.8199 22.6223 13.5325 22.5829 13.2489C22.3748 11.7513 21.1807 10.5124 19.69 10.2465C19.4657 10.2065 19.2362 10.196 19.0089 10.1722C18.8653 10.1571 18.6772 10.1484 18.6454 9.96984C18.6188 9.82013 18.7451 9.70096 18.8877 9.69328C18.9263 9.69099 18.9652 9.69281 19.0041 9.69293C21.0145 9.74929 18.9652 9.69281 19.0041 9.69293Z" fill="white"/>
<path d="M22.0593 13.6535C22.0559 13.6786 22.0542 13.7376 22.0395 13.7931C21.9861 13.9949 21.6801 14.0202 21.6097 13.8166C21.5888 13.7562 21.5857 13.6874 21.5855 13.6223C21.5848 13.1966 21.4923 12.7712 21.2776 12.4007C21.0568 12.0199 20.7196 11.6999 20.3241 11.5062C20.085 11.3891 19.8264 11.3163 19.5642 11.273C19.4497 11.254 19.3339 11.2426 19.2188 11.2265C19.0793 11.2071 19.0047 11.1182 19.0114 10.9808C19.0176 10.852 19.1117 10.7592 19.2521 10.7672C19.7134 10.7934 20.1591 10.8932 20.5693 11.1104C21.4033 11.5521 21.8798 12.2493 22.0189 13.1803C22.0252 13.2225 22.0352 13.2642 22.0385 13.3065C22.0463 13.4109 22.0513 13.5155 22.0593 13.6535C22.0559 13.6785 22.0513 13.5155 22.0593 13.6535Z" fill="white"/>
<path d="M20.8089 13.6048C20.6407 13.6078 20.5507 13.5146 20.5333 13.3605C20.5213 13.2531 20.5117 13.1441 20.486 13.0395C20.4355 12.8334 20.326 12.6425 20.1527 12.5162C20.0709 12.4566 19.9781 12.4132 19.881 12.3851C19.7577 12.3494 19.6295 12.3592 19.5065 12.3291C19.3729 12.2964 19.2989 12.1881 19.3199 12.0628C19.3391 11.9486 19.45 11.8596 19.5748 11.8686C20.3542 11.9249 20.9112 12.3278 20.9908 13.2454C20.9964 13.3102 21.003 13.3785 20.9886 13.4406C20.9639 13.5465 20.8854 13.5996 20.8089 13.6048C20.8854 13.5996 20.6407 13.6078 20.8089 13.6048Z" fill="white"/>
<path d="M21.3714 18.4176C21.2038 18.3667 21.517 18.3727 21.3714 18.4176V18.4176Z" fill="white"/>
<path d="M19.0093 9.69324C19.0076 9.69324 19.0059 9.69307 19.0042 9.69307C19.0026 9.69295 19.0047 9.69307 19.0093 9.69324Z" fill="white"/>
<path d="M19.0044 9.69293C19.0061 9.69293 19.0077 9.6931 19.0094 9.6931C19.121 9.69709 20.9355 9.74707 19.0044 9.69293Z" fill="white"/>
<path d="M22.0593 13.6535C22.0514 13.5155 22.056 13.6785 22.0593 13.6535V13.6535Z" fill="white"/>
<path d="M20.8091 13.6048C20.8117 13.6046 20.8143 13.6032 20.8168 13.6029C20.8097 13.6029 20.7988 13.6031 20.7876 13.6035C20.7949 13.6037 20.8015 13.6048 20.8091 13.6048Z" fill="white"/>
<path d="M20.8089 13.6048C20.8013 13.6049 20.7947 13.6038 20.7874 13.6035C20.751 13.6045 20.7135 13.6065 20.8089 13.6048Z" fill="white"/>
<path d="M20.8165 13.6029C20.8139 13.6032 20.8114 13.6046 20.8088 13.6048C20.8285 13.6034 20.8268 13.6029 20.8165 13.6029Z" fill="white"/>
</g>
<defs>
<filter id="filter0_d_47_282" x="0" y="0" width="38" height="38" filterUnits="userSpaceOnUse" color-interpolation-filters="sRGB">
<feFlood flood-opacity="0" result="BackgroundImageFix"/>
<feColorMatrix in="SourceAlpha" type="matrix" values="0 0 0 0 0 0 0 0 0 0 0 0 0 0 0 0 0 0 127 0" result="hardAlpha"/>
<feOffset dy="4"/>
<feGaussianBlur stdDeviation="2"/>
<feComposite in2="hardAlpha" operator="out"/>
<feColorMatrix type="matrix" values="0 0 0 0 0 0 0 0 0 0 0 0 0 0 0 0 0 0 0.25 0"/>
<feBlend mode="normal" in2="BackgroundImageFix" result="effect1_dropShadow_47_282"/>
<feBlend mode="normal" in="SourceGraphic" in2="effect1_dropShadow_47_282" result="shape"/>
</filter>
<clipPath id="clip0_47_282">
<rect width="30" height="30" fill="white" transform="translate(4)"/>
</clipPath>
</defs>
</svg>
